<?xml version="1.0" encoding="utf-8"?>
<!-- Generator: Adobe Illustrator 23.0.5, SVG Export Plug-In . SVG Version: 6.00 Build 0)  -->
<svg version="1.1" id="Layer_1" xmlns="http://www.w3.org/2000/svg" xmlns:xlink="http://www.w3.org/1999/xlink" x="0px" y="0px"
	 viewBox="0 0 32 32" style="enable-background:new 0 0 32 32;" xml:space="preserve">
<style type="text/css">
	.st0{fill:#FFFFFF;}
	.st1{fill:#010101;}
</style>
<circle class="st0" cx="16.4" cy="16.3" r="14.5"/>
<g>
	<g>
		<g>
			<path class="st1" d="M7.8,16.6c0-7.3,3.6-13.2,8-13.2c4.4,0,7.9,5.9,7.9,13.2c0,7.3-3.6,13.2-7.9,13.2
				C11.4,29.8,7.8,23.9,7.8,16.6z M20.2,15.3C18.5,9,15.3,4.4,12.9,5c-2.4,0.6-2.9,6.3-1.2,12.6c1.7,6.3,5,11,7.3,10.3
				C21.4,27.4,21.9,21.6,20.2,15.3z"/>
		</g>
		<g>
			<g>
				<path class="st1" d="M17.8,27.7c0.3-1.2,0.6-2.4,1-3.6c0.1-0.6,0.3-1.2,0.4-1.7c0.1-0.5,0.1-0.9-0.2-1.2c0.6-0.1,1.4,0.4,2,1.1
					c0.6,0.7,1.2,2,0.3,2.3l0,0.4c0,0-0.1,0.2-0.1,0.2c0.8,0.4,0.3,0.6-0.2,1.3l-0.6,0.9c-1.6,2.1-4.7,2.2-6.4,0.1
					c-0.7-0.9-1.5-1.8-2.2-2.7c0.5-0.2,0.9-0.5,1.4-0.7c-0.6-0.2-1.1-0.5-1.6-0.7c0.1-1.2,1.6-2.5,2.9-2.6c-0.4,0.5-0.3,1-0.1,1.5
					c0.6,1.8,1.3,3.5,1.9,5.3c0,0.1,0,0.1,0.1,0.2c0.1-1.2,0.2-2.5,0.4-3.7c-0.3-0.1-0.5-0.2-0.8-0.2c0.1-0.6,0.3-1,0.8-1.4
					c-0.1,0-0.2-0.1-0.3-0.1c-0.8-0.3-1.3-0.8-1.4-1.6c-0.1-0.5-0.3-0.9-0.7-1.2c-0.2-0.1-0.2-0.3-0.3-0.5c0-0.1,0-0.2,0.1-0.2
					c0,0.1,0,0.2,0.1,0.3c0.1,0.2,0.2,0.3,0.4,0.4c0.3,0,0.7,0.1,1,0c0.5-0.1,1-0.6,1.1-1.2c0-0.3,0.1-0.4,0.4-0.5
					c0.2-0.1,0.3-0.3,0.4-0.6c-0.4,0.5-0.9,0.5-1.4,0.3c-0.5-0.2-0.9-0.2-1.4,0c-0.5,0.2-0.9,0.1-1.1-0.3C13,16.8,13,16.7,13,16.5
					c0,0,0,0,0.1,0c0,0,0.1,0.1,0.1,0.1c0.3,0.3,0.6,0.3,0.9,0c0.1-0.1,0.2-0.2,0.4-0.3c-0.1-0.1-0.2-0.3-0.1-0.6
					c0.1,0.1,0.1,0.1,0.1,0.2c0.1,0.1,0.3,0.2,0.4,0.1c0.2-0.1,0.4-0.1,0.6,0c0.3,0.1,0.4,0,0.5-0.4c-0.2,0.1-0.4,0.1-0.5,0
					c-0.2-0.1-0.2-0.3-0.2-0.5c0-0.4,0.1-0.8,0.1-1.3c0-0.3,0.2-0.5,0.5-0.5c0.8-0.2,1.2-0.1,2,0.4c0-0.2-0.2-0.4-0.3-0.5
					c-0.4-0.3-0.8-0.5-1.3-0.6c-0.6-0.1-1.2-0.2-1.8-0.2c-0.6,0.1-0.9,0.3-0.9,1c0.1,0,0.2-0.1,0.3-0.1c0.4-0.1,0.8,0.2,0.9,0.6
					c0.1,0.3,0,0.6-0.1,0.9c-0.1,0.2-0.3,0.4-0.6,0.4l0.3-0.4c0,0,0,0,0-0.1h-0.9c0.1-0.5,0.4-0.7,0.9-0.7c-0.4-0.3-0.8-0.1-1.1,0.4
					c-0.7-0.5-1.4-1-1.9-1.7c-0.1-0.1-0.1-0.2-0.1-0.3c-0.2-0.5-0.1-1,0.4-1.3c0.5-0.3,1-0.3,1.5-0.4c0.1,0,0.3,0,0.4,0
					c0.1,0,0.2,0,0.2-0.2c0.2-1.1,0.4-2.2,0.7-3.3c0.1-0.3,0.2-0.5,0.5-0.6c0.6-0.2,1.1-0.1,1.7-0.1c1,0.1,1.9,0.3,2.8,0.7
					c0.3,0.1,0.6,0.3,0.8,0.5C20.6,8,20.7,8.3,20.4,9c-0.4,0.9-0.6,1.9-0.4,2.8c0,0.2,0,0.2,0,0.4c-1-0.6-2.1-0.8-3.3-0.9
					c0.4,0.1,0.7,0.2,1.1,0.4c1.2,0.4,2.4,1,3.4,1.8c0.3,0.3,0.6,0.6,0.9,1c0.1,0.2,0.2,0.4,0.3,0.6c0.1,0.4-0.1,0.7-0.5,1
					c-0.4,0.3-0.9,0.4-1.4,0.4c-0.1,0-0.2,0.1-0.2,0.1c-0.2,0.5-0.6,0.7-1.1,0.7c0,0-0.1,0-0.1,0c0,0.3-0.1,0.6-0.1,0.9
					c0,0.3-0.1,0.6-0.1,0.9c-0.6,0-1.3-0.5-1.4-1.2c0-0.4,0-0.9,0.1-1.3c0.1-0.7,0.1-1.3,0.2-2c0-0.4-0.3-0.7-0.6-0.8
					c-0.4-0.1-0.7,0.2-0.8,0.6c-0.1,0.3,0,0.6,0.3,0.8c0.3,0.2,0.6,0.2,0.9,0c0,0,0.1,0,0.1-0.1c0,0.3-0.1,0.6-0.1,0.9
					c0,0.5-0.1,1-0.1,1.5c-0.1,0.8,0.5,1.6,1.3,1.8c0,0,0.1,0,0.1,0c0,0.3-0.1,0.7-0.1,1c0,0.2-0.1,0.4-0.1,0.6c0,0.6-0.3,1-0.8,1.3
					c-0.2,0.1-0.5,0.2-0.7,0.3c0.4,0.3,0.7,0.8,0.8,1.3c-0.2,0.1-0.4,0.1-0.6,0.2c-0.1,0-0.1,0.1-0.1,0.2
					C17.4,25.2,17.6,26.4,17.8,27.7C17.8,27.6,17.8,27.6,17.8,27.7z"/>
			</g>
			<g>
				<path class="st1" d="M15.6,17.6c0.2,0,0.3,0.1,0.5,0.1c0.2,0.1,0.2,0.2,0.1,0.3c-0.2,0.1-0.4,0.2-0.6,0.3
					c-0.1,0-0.6-0.3-0.5-0.5c0-0.1,0.1-0.1,0.1-0.2C15.3,17.7,15.4,17.7,15.6,17.6z"/>
			</g>
		</g>
		<g>
			<path class="st1" d="M23.7,4.7L23.7,4.7l-0.2,0.1v0.7h-0.1V4.8h-0.2V4.7H23.7z"/>
			<path class="st1" d="M24.6,4.7v0.8h-0.1V4.9l-0.3,0.6h-0.1l-0.3-0.6v0.6h-0.1V4.7h0.1l0.3,0.6l0.3-0.6H24.6z"/>
		</g>
	</g>
</g>
</svg>
